<svg width="20" height="20" fill="none" xmlns="http://www.w3.org/2000/svg"><path d="M19.28 3.157a2.484 2.484 0 00-1.745-.723c0-.635-.265-1.253-.723-1.711a2.47 2.47 0 00-3.475 0c-.829.811-.934 2.063-.37 3.016l-9.189 9.224c-.935-.565-2.222-.476-3.051.37a2.47 2.47 0 000 3.475 2.485 2.485 0 001.746.723c0 .652.265 1.287.723 1.746a2.47 2.47 0 003.475 0 2.488 2.488 0 00.176-3.316l9.118-9.154c.97.776 2.416.724 3.316-.176a2.47 2.47 0 000-3.474zm-.828 2.645c-.494.494-1.358.512-1.87 0a1.474 1.474 0 01-.158-.176.552.552 0 00-.847-.07c-.018.017-9.965 10-10 10.052-.212.265-.176.653.106.847.653.476.723 1.446.159 1.993a1.299 1.299 0 01-1.817 0c-.353-.353-.476-.935-.282-1.429a.582.582 0 00-.758-.758 1.374 1.374 0 01-1.429-.282c-.794-.794-.265-2.205.935-2.205.352 0 .688.141.934.37.23.23.6.23.83 0C14.871 3.474 14.218 4.162 14.29 4.021a.593.593 0 00-.124-.67 1.299 1.299 0 010-1.817 1.299 1.299 0 011.817 0c.37.37.476.9.282 1.376a.584.584 0 000 .423.6.6 0 00.758.335 1.374 1.374 0 011.429.282 1.31 1.31 0 010 1.852z" fill="#961914"/><path d="M6.473 7.231a.585.585 0 10.829-.829L5.309 4.41a.585.585 0 10-.83.83l1.995 1.99zM2.187 9.33h2.804a.587.587 0 00.582-.582.587.587 0 00-.582-.582H2.187a.587.587 0 00-.582.582c0 .335.265.582.582.582zm6.631-3.81a.587.587 0 00.582-.582V2.117a.587.587 0 00-.582-.582.587.587 0 00-.582.582v2.821c0 .318.247.582.582.582zm4.78 7.25a.585.585 0 10-.829.828l1.993 1.993a.608.608 0 00.406.176c.511 0 .776-.635.405-1.005l-1.975-1.993zm4.286-2.1h-2.822a.587.587 0 00-.582.582c0 .318.264.582.582.582h2.804a.587.587 0 00.582-.582.561.561 0 00-.564-.582zm-6.632 3.81a.587.587 0 00-.582.582v2.804c0 .318.265.582.582.582a.587.587 0 00.582-.582v-2.804a.587.587 0 00-.582-.582z" fill="#961914"/></svg>