<svg width="20" height="18" fill="none" xmlns="http://www.w3.org/2000/svg"><path d="M19.4 9.826a13.38 13.38 0 00-.637-1.168 20.618 20.618 0 01-1.543-3.043c-.038-.1-.089-.199-.127-.298a.306.306 0 00-.395-.137.29.29 0 00-.14.385c.038.087.076.162.114.249.395 1.018.918 2.037 1.581 3.13.242.385.446.77.612 1.118.37.758.548 1.391.548 1.876 0 3.006-2.614 5.466-5.827 5.466a6.195 6.195 0 01-2.869-.708c.51-.435.957-.932 1.34-1.491a7.836 7.836 0 001.249-3.367c.23-1.925-.268-3.677-1.288-4.472-.638-.496-1.288-.633-1.913-.583.14-.323.28-.646.408-.97.23-.583.638-1.08 1.173-1.44a3.407 3.407 0 011.9-.572c.09 0 .166 0 .242.013.791.05 1.53.372 2.092.907a.306.306 0 00.42 0 .287.287 0 000-.41 3.908 3.908 0 00-2.435-1.056c.064-.795.434-1.653 1.313-1.963a.293.293 0 00.179-.373c-.051-.149-.23-.223-.383-.174-1.147.41-1.632 1.516-1.696 2.51-.726.037-1.39.26-1.963.646a3.723 3.723 0 00-1.403 1.714c-.166.422-.37.87-.586 1.317-.612.161-1.174.472-1.645.72-.28.15-.549.298-.765.373a5.172 5.172 0 00-.345-1.441c1.428-.137 2.755-.882 3.583-2.037a4.774 4.774 0 00.663-4.348.286.286 0 00-.28-.199C8.996.037 7.504.807 6.586 2.062c-.65.907-.97 2-.905 3.08-.281-.272-.587-.459-.893-.533a.3.3 0 00-.37.198.302.302 0 00.217.36c.88.237 1.594 1.653 1.721 2.845a3.395 3.395 0 01-.395-.186 9.18 9.18 0 01-.332-.174c-.688-.373-1.53-.82-2.435-.87a2.667 2.667 0 00-1.849.597C.593 7.95.108 9.069.02 10.422c-.153 2.112.625 4.274 2.091 5.79.115.111.306.123.421.012.115-.112.127-.299.013-.41C1.192 14.41.465 12.41.606 10.472c.089-1.192.497-2.174 1.109-2.646.446-.335.918-.497 1.454-.46.765.038 1.517.435 2.18.795.127.063.242.125.357.187.191.1.344.174.485.223.178.063.344.1.484.1.37 0 .803-.224 1.339-.522 1.058-.559 2.384-1.28 3.621-.323.855.658 1.275 2.236 1.071 3.95a7.292 7.292 0 01-1.147 3.118c-.714 1.069-1.696 1.876-2.92 2.435-.268.124-.561.062-.918-.174a1.953 1.953 0 00-.97-.323h-.038a1.79 1.79 0 00-1.084.323c-.357.236-.65.286-.918.174a7.335 7.335 0 01-1.326-.77.299.299 0 00-.42.062.281.281 0 00.063.41 7.35 7.35 0 001.428.832c.179.087.357.112.536.112.382 0 .727-.161.969-.335.217-.15.472-.224.74-.211h.038c.23.012.459.087.65.21.37.25.918.485 1.505.224a8.091 8.091 0 001.326-.757 6.708 6.708 0 003.366.894C17.131 18 20 15.292 20 11.963c0-.584-.204-1.305-.6-2.137zM6.816 5.976l1.722-2.374 1.44.187a3.872 3.872 0 01-.267.422c-.676.944-1.734 1.578-2.895 1.764zm2.219-4.063l-.395-.845c.408-.21.854-.36 1.326-.434l-.931 1.279zM10.45.969c.14.758.064 1.54-.204 2.26l-1.313-.16 1.517-2.1zm-2.32.41l.523 1.093-.485.646-.395.534-.6-1.391c.268-.336.587-.646.957-.882zM6.777 2.857l.587 1.354L6.33 5.64a4.303 4.303 0 01.446-2.783z" fill="#961914"/></svg>