<svg width="20" height="15" fill="none" xmlns="http://www.w3.org/2000/svg"><g clip-path="url(#clip0_137_483)"><path d="M13.634.357c-.268 0-.451.202-.451.497s.183.497.451.497c3.007 0 5.463.093 5.463.9 0 1.957-4.503 4.147-7.142 5.404-.325-.295-.55-.994-.55-1.553 0-.559.183-1.055.493-1.397.494-.497.777-1.304.777-2.096 0-.948-.452-1.802-1.228-2.205-.043-.047-.141-.047-.184-.047-.62-.062-1.312-.109-1.948-.155C8.271.093 7.185 0 6.182 0c-2.95 0-4.404 1.444-5.138 2.655C.55 3.494 0 5.047 0 6.46c0 1.35.55 3.105.96 4.503.084.248.14.497.226.699.084.294.183.59.225.838.41 1.398.678 2.5 1.906 2.5.677 0 1.454-.807 2.766-2.252.875-.947 1.877-1.987 2.513-2.344a17.264 17.264 0 011.595-.746c.225-.108.31-.403.225-.652-.084-.248-.367-.357-.592-.248a42.53 42.53 0 01-1.595.745c-.819.404-1.821 1.506-2.767 2.547-.734.76-1.82 1.956-2.145 1.956-.452 0-.635-.357-1.002-1.801-.085-.248-.127-.543-.226-.854-.085-.249-.141-.497-.226-.745C1.453 9.255.96 7.609.96 6.46c0-1.305.55-2.656.86-3.2C2.683 1.756 4.179.995 6.225.995c.96 0 2.047.093 3.091.202.636.046 1.27.093 1.906.155.41.248.635.699.635 1.258s-.184 1.056-.494 1.397c-.494.497-.762 1.289-.762 2.096 0 .746.325 2.05 1.228 2.547a.496.496 0 00.367 0c3.91-1.894 7.82-3.944 7.82-6.397C20 .45 17.684.357 13.634.357z" fill="#961914"/></g><defs><clipPath id="clip0_137_483"><path fill="#fff" d="M0 0h20v15H0z"/></clipPath></defs></svg>