<svg width="20" height="14" fill="none" xmlns="http://www.w3.org/2000/svg"><path d="M18.295 2.435c-.917-.653-2.199-1.18-3.821-1.581C11.346.084 7.819 0 6.444 0 2.891 0 0 2.593 0 5.777v2.446C0 11.407 2.892 14 6.443 14c1.635 0 2.87-.464 4.174-.949 1.352-.506 2.74-1.022 4.703-1.022 2.587 0 4.68-1.887 4.68-4.196V5.387c0-1.149-.576-2.14-1.705-2.952zm-.33 5.988c.154.137.4.148.553.01.27-.22.494-.474.694-.737v.137c0 1.93-1.752 3.5-3.903 3.5-2.117 0-3.586.548-4.997 1.075-1.223.464-2.387.896-3.869.896-2.998 0-5.467-2.098-5.655-4.754 1.093 1.792 3.221 3.004 5.655 3.004 1.635 0 2.87-.464 4.174-.949 1.352-.506 2.74-1.022 4.703-1.022.141 0 .294-.01.435-.021.212-.021.377-.19.353-.38-.023-.19-.212-.337-.423-.316-.118.01-.247.01-.365.01-2.116 0-3.586.549-4.997 1.076-1.234.474-2.398.906-3.88.906-3.127 0-5.667-2.277-5.667-5.08 0-2.805 2.54-5.082 5.667-5.082 1.34 0 4.786.084 7.82.833 3.28.811 4.95 2.108 4.95 3.858 0 .96-.448 1.887-1.235 2.54a.334.334 0 00-.012.496z" fill="#961914"/><path d="M17.648 8.645a.405.405 0 00-.517-.17h-.012c-.188.085-.27.296-.176.475.07.127.212.19.353.19a.52.52 0 00.176-.032c.188-.084.27-.284.176-.463zM9.265 1.497h-.023c-.212-.01-.4.126-.424.327-.011.19.141.358.353.38h.059c.2 0 .376-.138.388-.328.023-.19-.141-.358-.353-.38z" fill="#961914"/><path d="M18.19 4.449c-.389-.696-1.247-1.286-2.564-1.771-1.058-.39-2.222-.643-3.01-.78-.47-.085-.964-.159-1.47-.222-.211-.02-.411.116-.435.306-.035.19.118.369.33.39.493.063.964.137 1.422.21 2.681.475 4.515 1.266 5.033 2.173.105.19.164.4.164.632 0 1.16-1.046 2.098-2.34 2.098-1.305 0-2.563.19-3.868.58-.564.168-1.105.369-1.634.569-.353.127-.706.264-1.07.38-.894.316-1.588.442-2.305.442-2.257 0-4.103-1.644-4.103-3.679 0-2.024 1.834-3.68 4.103-3.68.447 0 .894.011 1.329.022.07 0 .153 0 .223.01.224.011.4-.137.412-.337.012-.19-.153-.358-.376-.369-.083 0-.153-.01-.236-.01-.446 0-.905-.01-1.352-.01-2.692 0-4.88 1.96-4.88 4.374 0 2.414 2.188 4.375 4.88 4.375.823 0 1.588-.147 2.587-.485a18.78 18.78 0 001.082-.39c.517-.19 1.046-.39 1.575-.548a12.324 12.324 0 013.622-.548c1.716 0 3.115-1.255 3.115-2.794a1.707 1.707 0 00-.235-.938z" fill="#961914"/><path d="M6.82 2.794c-1.094 0-1.976.727-1.976 1.613 0 .885.882 1.602 1.976 1.602 1.093 0 1.975-.727 1.975-1.613 0-.885-.882-1.602-1.975-1.602zm0 2.52c-.659 0-1.2-.412-1.2-.907 0-.506.541-.907 1.2-.907.658 0 1.199.4 1.199.907 0 .506-.541.906-1.2.906z" fill="#961914"/></svg>