<svg width="20" height="19" fill="none" xmlns="http://www.w3.org/2000/svg"><path d="M19.589 5.825c.27-.364.411-.782.411-1.227 0-1.186-1.007-2.144-2.255-2.144a2.3 2.3 0 00-1.291.391 2.297 2.297 0 00-1.29-.39 2.3 2.3 0 00-1.292.39 2.37 2.37 0 00-1.29-.39c-.469 0-.908.134-1.291.39a2.331 2.331 0 00-2.582 0 2.297 2.297 0 00-1.29-.39c-.469 0-.908.134-1.291.39V1.052L4.284 0h-.738v2.845c-.596.405-.964 1.052-.964 1.753 0 1.187 1.007 2.144 2.255 2.144.468 0 .908-.134 1.29-.39.384.256.823.39 1.291.39.469 0 .922-.134 1.291-.39.369.256.823.39 1.291.39.468 0 .908-.134 1.29-.39.37.256.824.39 1.292.39.468 0 .907-.134 1.29-.39a2.22 2.22 0 001.277.39c.113 0 .241-.013.355-.027a2.378 2.378 0 00-.029.338c0 .12.014.229.029.337a2.367 2.367 0 00-1.646.364 2.188 2.188 0 00-1.276-.391c-.469 0-.908.135-1.291.39a2.331 2.331 0 00-2.582 0 2.232 2.232 0 00-1.29-.39 2.27 2.27 0 00-1.291.39 2.297 2.297 0 00-1.291-.39c-.468 0-.908.135-1.29.39a2.297 2.297 0 00-1.292-.39C1.007 7.363 0 8.32 0 9.507c0 .458.142.876.411 1.227a2.038 2.038 0 000 2.454A2.032 2.032 0 000 14.402c0 1.186 1.007 2.144 2.255 2.144.468 0 .922-.149 1.291-.391.383.256.823.39 1.29.39a2.3 2.3 0 001.292-.39c.383.256.822.39 1.29.39.469 0 .922-.148 1.291-.39.383.256.823.39 1.291.39.468 0 .908-.134 1.29-.39.37.242.824.39 1.292.39.468 0 .907-.134 1.29-.39v1.793L15.716 19h.738v-2.845c.596-.405.964-1.052.964-1.753 0-1.187-1.007-2.144-2.255-2.144-.468 0-.908.135-1.29.39a2.331 2.331 0 00-2.582 0 2.335 2.335 0 00-1.291-.39c-.468 0-.908.135-1.29.39a2.297 2.297 0 00-1.292-.39c-.468 0-.907.135-1.29.39a2.297 2.297 0 00-1.646-.363c.014-.108.029-.216.029-.338a2.7 2.7 0 00-.029-.337 2.335 2.335 0 001.645-.364c.37.27.823.405 1.291.405.469 0 .908-.135 1.291-.391.369.242.823.39 1.291.39.468 0 .908-.134 1.29-.39.384.256.824.39 1.292.39.468 0 .907-.134 1.29-.39.37.242.823.39 1.291.39.482 0 .922-.148 1.29-.39.384.256.824.39 1.292.39 1.248 0 2.255-.957 2.255-2.143a2.04 2.04 0 00-.411-1.227c.27-.364.411-.782.411-1.227a2.173 2.173 0 00-.411-1.228zm-.653 2.657c.27.283.412.647.412 1.025 0 .85-.724 1.537-1.617 1.537-.284 0-.568-.08-.809-.202.298-.364.482-.823.482-1.322h-.638c0 .85-.723 1.537-1.617 1.537-.68 0-1.29-.404-1.518-1.024l-.61.188c.085.23.199.432.355.607-.582.31-1.362.257-1.872-.188l-.213-.176-.227.175a1.583 1.583 0 01-1.064.392 1.62 1.62 0 01-1.518-1.012l-.61.216c.085.216.199.418.355.593a1.767 1.767 0 01-1.603 0c.284-.364.468-.822.468-1.321h-.638c0 .85-.723 1.537-1.617 1.537-.213 0-.411-.04-.596-.108a2.257 2.257 0 00-.78-.796l-.355.513c.468.283.752.769.752 1.294a1.5 1.5 0 01-.113.567c-.695.364-1.178 1.065-1.178 1.874h.639c0-.85.723-1.537 1.617-1.537.397 0 .78.135 1.078.391l.212.189.213-.189a1.824 1.824 0 011.901-.162 2.06 2.06 0 00-.482 1.322h.638c0-.432.199-.85.539-1.146A1.71 1.71 0 0110 12.877c.894 0 1.617.688 1.617 1.537h.638c0-.499-.184-.957-.482-1.321.582-.31 1.362-.256 1.887.175l.212.189.213-.189a1.649 1.649 0 011.078-.391c.894 0 1.617.688 1.617 1.537 0 .54-.312 1.052-.808 1.322l-.156.094v2.522l-1.291-.742v-1.78l-.156-.094c-.1-.054-.185-.122-.27-.19l-.213-.188-.212.189a1.649 1.649 0 01-1.078.391c-.667 0-1.277-.391-1.504-.984l-.61.215c.085.203.199.391.34.567a1.767 1.767 0 01-1.602 0 2.1 2.1 0 00.354-.62l-.638-.203c-.227.62-.837 1.025-1.518 1.025-.397 0-.78-.135-1.078-.391l-.212-.189-.213.189c-.51.431-1.29.499-1.872.175a2.1 2.1 0 00.354-.62l-.61-.202c-.227.62-.837 1.024-1.518 1.024-.893 0-1.617-.687-1.617-1.537 0-.85.724-1.537 1.617-1.537v-.593a2.34 2.34 0 00-1.39.458 1.465 1.465 0 01-.212-.768c0-.27.07-.54.212-.77a2.41 2.41 0 001.036.432l.1-.606C1.22 10.896.637 10.262.637 9.507c0-.85.724-1.538 1.617-1.538.397 0 .78.135 1.078.392l.213.188.213-.188c.51-.432 1.29-.5 1.872-.176a2.14 2.14 0 00-.34.607l.61.202c.227-.606.837-1.025 1.517-1.025.894 0 1.617.688 1.617 1.538h.639c0-.5-.185-.958-.483-1.322.582-.31 1.362-.256 1.873.176l.213.188.227-.188a1.64 1.64 0 011.078-.392c.879 0 1.602.688 1.602 1.538h.639c0-.5-.185-.958-.483-1.322.426-.229.95-.27 1.419-.094.085.135.184.27.298.39l.482-.404a1.478 1.478 0 01-.411-1.024c0-.203.042-.392.113-.58.142-.081.284-.176.412-.284l-.426-.458c-.298.256-.68.391-1.078.391-.68 0-1.29-.404-1.518-1.025l-.61.216c.085.23.199.432.355.607-.582.31-1.362.256-1.872-.175l-.213-.19-.227.19c-.51.431-1.291.485-1.873.175a2.17 2.17 0 00.355-.607l-.61-.202c-.227.607-.837 1.025-1.518 1.025-.397 0-.78-.135-1.078-.391l-.212-.19-.213.19c-.298.242-.681.39-1.078.39-.894 0-1.617-.687-1.617-1.537 0-.54.312-1.052.808-1.321l.156-.095V.661l1.291.741v1.78l.156.095c.1.054.185.121.27.189l.227.175.212-.189c.511-.431 1.291-.485 1.887-.175a2.007 2.007 0 00-.482 1.321h.638c0-.85.723-1.537 1.617-1.537.397 0 .78.135 1.078.391l.213.189.213-.189c.297-.256.68-.391 1.078-.391.879 0 1.602.688 1.602 1.537h.639c0-.499-.185-.957-.483-1.321.582-.31 1.362-.256 1.887.175l.213.189.212-.189a1.649 1.649 0 011.078-.391c.894 0 1.617.688 1.617 1.537 0 .27-.085.54-.212.769a2.337 2.337 0 00-1.39-.459v.607c.893 0 1.617.688 1.617 1.538 0 .377-.142.741-.412 1.024l-.198.203.184.202z" fill="#961914"/></svg>