<svg width="20" height="20" fill="none" xmlns="http://www.w3.org/2000/svg"><path d="M20 11.276c0-1.4-.682-2.752-1.823-3.586a1.346 1.346 0 00-.81-.27c-.365 0-.706.14-.953.387-.047-.035-.094-.082-.141-.117a1.168 1.168 0 00-.612-.247l.142-1.564V5.76c0-.693-.565-1.246-1.247-1.246h-.082c-.694 0-1.247.564-1.247 1.246v.118l.142 1.575c-.2.036-.4.118-.565.247-.059.047-.106.094-.164.141-.024-.035-.06-.058-.094-.082a1.77 1.77 0 00.035-.34c0-.412-.13-.8-.365-1.13a1.929 1.929 0 00-1.681-3.057 1.937 1.937 0 00-1.282-1.21 1.93 1.93 0 00-1.622-.73A1.93 1.93 0 005.808 0a1.94 1.94 0 00-1.681.964 1.956 1.956 0 00-1.799 1.458 2.595 2.595 0 00-1.681 2.41c0 .859.423 1.658 1.128 2.129a1.908 1.908 0 00.54 2.257 2.043 2.043 0 00-.058.459c0 .987.741 1.81 1.705 1.916l.718 1.999a3.66 3.66 0 00-.918.988l-1.693-.377a.906.906 0 00-1.105.882v.13c0 .094.012.176.047.258H.964A.986.986 0 000 16.45c0 .53.435.964.964.964h.047a.917.917 0 00-.047.259v.13c0 .493.4.905.905.905.071 0 .13-.012.2-.024l1.693-.376A3.542 3.542 0 006.772 20h.071c.176 0 .365-.012.54-.047l11.065-1.705A1.824 1.824 0 0020 16.438c0-.73-.423-1.353-1.046-1.647.67-.8 1.046-1.81 1.046-2.857v-.658zm-4.115-3.07a3.966 3.966 0 011.54 3.14v1.188a4.02 4.02 0 01-.47 1.881l-2.587-.4a6.443 6.443 0 01-.165-1.422v-1.317c0-.33.036-.647.083-.976.082.012.153.012.235.012.917 0 1.61-.412 1.61-.965 0-.305-.211-.576-.575-.752l.047-.517a.758.758 0 01.282.129zm-1.411-3.044h.082c.33 0 .6.27.6.6v.058l-.294 3.222.247.082c.282.094.376.212.376.235 0 .083-.341.318-.964.318s-.964-.247-.964-.318c0-.023.094-.14.376-.235l.247-.082-.306-3.222v-.059c0-.329.27-.6.6-.6zm-1.047 2.927l.047.506c-.364.176-.576.447-.576.752 0 .353.294.647.741.824a7.01 7.01 0 00-.094 1.105v1.305c0 .447.047.882.13 1.317l-1.905-.294a3.79 3.79 0 01-.165-1.094v-1.164c0-1.223.588-2.398 1.575-3.14a.787.787 0 01.247-.117zm-3.48 5.244a3.737 3.737 0 01-.27-1.387v-.67c0-1.2.588-2.352 1.563-3.07a.71.71 0 01.929.07 4.551 4.551 0 00-1.199 3.07v1.188c0 .329.035.658.106.987l-1.129-.188zm.024-9.688l.058.33.33-.071c.105-.024.2-.036.282-.036a1.29 1.29 0 011.293 1.294c0 .34-.13.658-.364.905l-.224.223.224.224a1.3 1.3 0 01.364.905v.024c-.094-.012-.176-.024-.27-.024-.294 0-.576.094-.812.27-.587.424-1.046 1-1.363 1.635a24.11 24.11 0 00-.377-1.094c.294-1.575 1.4-2.48 1.411-2.492l-.2-.259-.2-.247c-.047.035-.917.753-1.41 2.034-.67-1.54-1.306-2.54-1.34-2.598l-.553.34c.011.013.505.789 1.07 2.023-.953-.364-2.058-.259-2.117-.259l.059.647c.482-.047 1.858-.023 2.504.635.224.553.447 1.164.647 1.823-.976-.518-2.152-.518-2.21-.518v.635c.011 0 1.446.012 2.304.682-.024.2-.047.4-.047.6v.682c0 .435.07.858.188 1.27l-1.834-.283-.282-.035a1.3 1.3 0 01-1.294-1.305c0-.153.036-.306.094-.459l.094-.247-.235-.129a1.282 1.282 0 01-.6-1.093c0-.259.071-.506.212-.718l.2-.305-.317-.153a1.909 1.909 0 01-1.058-1.729 1.94 1.94 0 011.399-1.857l.2-.059.035-.212a1.28 1.28 0 011.27-1.093h.035c.023 0 .047.012.07.012l.236.023.082-.223a1.281 1.281 0 012.446.282zM4.42 10.97h-.223a1.29 1.29 0 01-1.294-1.293c0-.153.035-.306.094-.459l.094-.247-.235-.14a1.282 1.282 0 01-.6-1.094c0-.26.071-.506.212-.718l.2-.305-.317-.153a1.909 1.909 0 01-1.059-1.729 1.94 1.94 0 011.4-1.857l.2-.06.035-.21a1.3 1.3 0 011.27-1.106h.035c.023 0 .047 0 .07.012l.236.023.094-.211A1.26 1.26 0 015.808.647c.624 0 1.153.446 1.27 1.07l.059.329.33-.07c.105-.024.187-.036.281-.036.153 0 .294.035.424.082-.482.13-.894.447-1.14.882-.86.024-1.588.635-1.8 1.458a2.571 2.571 0 00-.552 4.539 1.908 1.908 0 00.54 2.257 2.043 2.043 0 00-.058.459c0 .564.247 1.081.635 1.434a4.47 4.47 0 00-.553.212l-.823-2.293zm-2.81 4.256v-.129c0-.165.153-.282.317-.247l1.54.341a1.25 1.25 0 00-.105.294H1.869a.261.261 0 01-.258-.259zM.647 16.45c0-.176.14-.317.317-.317h2.281c-.012.105-.012.211-.012.317 0 .106.012.212.012.318H.964a.316.316 0 01-.317-.318zm1.281 1.611c-.153.035-.317-.094-.317-.247v-.13a.26.26 0 01.258-.258h1.494c.023.106.059.2.094.294l-1.529.341zm17.425-1.61c0 .587-.423 1.08-1 1.163L7.29 19.318a2.742 2.742 0 01-.447.035h-.07a2.91 2.91 0 01-2.905-2.904 2.91 2.91 0 012.904-2.904h.071c.141 0 .294.012.447.035l11.064 1.705c.576.082 1 .576 1 1.164zm0-4.504c0 .988-.4 1.952-1.105 2.669l-.647-.094a4.63 4.63 0 00.447-1.987v-1.188c0-1.14-.435-2.245-1.187-3.08a.742.742 0 01.494-.2.68.68 0 01.423.14 3.837 3.837 0 011.564 3.07l.011.67z" fill="#961914"/><path d="M6.455 14.838h.647v3.222h-.647v-3.222zm2.575 0h.647v3.222H9.03v-3.222zm2.587 0h.646v3.222h-.646v-3.222zm2.575.647h.646v1.94h-.646v-1.94zm2.575.318h.646v1.293h-.646v-1.293z" fill="#961914"/></svg>