<svg width="40" height="40" fill="none" xmlns="http://www.w3.org/2000/svg"><path d="M33.125 20a3.125 3.125 0 100-6.25 3.125 3.125 0 000 6.25zm-26.25 0a3.125 3.125 0 100-6.25 3.125 3.125 0 000 6.25zm7.5-7.5a3.125 3.125 0 100-6.25 3.125 3.125 0 000 6.25zm11.25 0a3.125 3.125 0 100-6.25 3.125 3.125 0 000 6.25zm3.254 11.602a6.803 6.803 0 01-3.23-4.047h0a5.625 5.625 0 00-10.802 0h0a6.803 6.803 0 01-3.23 4.047 5.002 5.002 0 004.332 9.003 11.33 11.33 0 018.598 0 5 5 0 004.332-9.003h0z" stroke="#961914" stroke-width="2" stroke-linecap="round" stroke-linejoin="round"/></svg>