<svg width="40" height="40" viewBox="0 0 40 40" fill="none" xmlns="http://www.w3.org/2000/svg">
<path d="M33.125 20C34.8509 20 36.25 18.6009 36.25 16.875C36.25 15.1491 34.8509 13.75 33.125 13.75C31.3991 13.75 30 15.1491 30 16.875C30 18.6009 31.3991 20 33.125 20Z" stroke="#961914" stroke-width="2" stroke-linecap="round" stroke-linejoin="round"/>
<path d="M6.875 20C8.60089 20 10 18.6009 10 16.875C10 15.1491 8.60089 13.75 6.875 13.75C5.14911 13.75 3.75 15.1491 3.75 16.875C3.75 18.6009 5.14911 20 6.875 20Z" stroke="#961914" stroke-width="2" stroke-linecap="round" stroke-linejoin="round"/>
<path d="M14.375 12.5C16.1009 12.5 17.5 11.1009 17.5 9.375C17.5 7.64911 16.1009 6.25 14.375 6.25C12.6491 6.25 11.25 7.64911 11.25 9.375C11.25 11.1009 12.6491 12.5 14.375 12.5Z" stroke="#961914" stroke-width="2" stroke-linecap="round" stroke-linejoin="round"/>
<path d="M25.625 12.5C27.3509 12.5 28.75 11.1009 28.75 9.375C28.75 7.64911 27.3509 6.25 25.625 6.25C23.8991 6.25 22.5 7.64911 22.5 9.375C22.5 11.1009 23.8991 12.5 25.625 12.5Z" stroke="#961914" stroke-width="2" stroke-linecap="round" stroke-linejoin="round"/>
<path d="M28.879 24.1021C27.3112 23.2313 26.1507 21.7767 25.6498 20.0546L25.6497 20.0548C25.3097 18.8853 24.5994 17.8577 23.6254 17.1265C22.6514 16.3953 21.4663 16 20.2484 16C19.0305 16 17.8455 16.3953 16.8715 17.1265C15.8975 17.8577 15.1872 18.8853 14.8472 20.0548L14.8471 20.0546C14.3462 21.7767 13.1857 23.2313 11.6178 24.1021C10.4885 24.7143 9.63801 25.7376 9.24269 26.9598C8.84738 28.1821 8.93755 29.5096 9.49452 30.6672C10.0515 31.8248 11.0325 32.7237 12.2343 33.1775C13.4361 33.6313 14.7664 33.6053 15.9495 33.1049C18.7042 31.9753 21.7927 31.9753 24.5473 33.1049C25.7305 33.6059 27.0612 33.6323 28.2633 33.1785C29.4654 32.7248 30.4468 31.8258 31.0039 30.668C31.561 29.5101 31.6511 28.1823 31.2555 26.9598C30.8598 25.7373 30.0089 24.714 28.879 24.1021H28.879Z" stroke="#961914" stroke-width="2" stroke-linecap="round" stroke-linejoin="round"/>
</svg>
