<svg width="252" height="296" fill="none" xmlns="http://www.w3.org/2000/svg"><g clip-path="url(#clip0_191_725)" fill="#fff"><path d="M37.488 111.577c-5.093-3.269-10.505-5.942-16.14-8.08-.845-.3-1.153 1.049-.309 1.349a83.582 83.582 0 0115.827 7.945c.737.499 1.383-.73.622-1.214zM36.1 127.578a115.996 115.996 0 01-18.742 5.606c-.857.204-.453 1.538.42 1.358 6.39-1.341 12.665-3.237 18.742-5.606.831-.353.427-1.687-.42-1.358zM48.83 99.58c-2.27-5.955-4.523-11.887-6.791-17.842-.318-.826-1.661-.452-1.328.398 2.268 5.956 4.522 11.888 6.79 17.843.294.841 1.637.466 1.328-.398z"/></g><g clip-path="url(#clip1_191_725)"><path d="M392.503 62.224c-17.57-21.459-40.713-37.977-66.25-48.585-26.021-10.82-54.92-15.67-83.032-12.821-14.601 1.485-29.384 5.274-41.652 13.578-12.36 8.366-21.447 20.823-28.384 33.886-7.089 13.306-12.36 28.036-13.905 43.1-1.424 13.73.606 28.43 8.876 39.826 12.814 17.64 43.773 23.914 57.465 3.91 3.787-5.547 5.665-12.154 6.483-18.762.878-7.152.636-14.639-1.151-21.64-3.423-13.458-13.208-23.278-25.567-29.036-25.81-12.064-57.496-8.608-82.972 2.515-26.536 11.578-47.862 32.522-62.009 57.618-13.571 24.005-20.841 51.526-20.69 79.137.152 26.673 7.331 53.557 22.356 75.743a119.81 119.81 0 0012.208 15.155c.666.697 1.757-.364 1.06-1.061-18.024-18.974-28.869-43.615-32.625-69.408-3.786-26.006-.454-52.829 8.906-77.319 9.845-25.793 26.415-49.434 48.953-65.65 22.992-16.579 52.225-25.308 80.548-21.822 13.087 1.606 26.567 5.97 36.533 14.912 10.966 9.85 14.359 24.308 13.177 38.583-1.06 12.821-6.785 26.097-19.841 30.461-10.603 3.546-22.75.879-31.929-5.122-24.416-15.913-20.629-50.313-11.905-73.924 5.211-14.094 12.753-27.946 22.962-39.069 9.997-10.881 22.81-17.792 37.078-21.307 13.693-3.395 28.082-4.032 42.107-3.153a174.308 174.308 0 0140.017 7.275c25.627 7.82 49.619 21.428 69.006 39.978a157.128 157.128 0 0113.117 14.184c.606.637 1.666-.424 1.06-1.182z" fill="#fff"/></g><defs><clipPath id="clip0_191_725"><rect x="20.107" y="139.171" width="38" height="49" rx="2" transform="rotate(-121.946 20.107 139.171)" fill="#fff"/></clipPath><clipPath id="clip1_191_725"><rect x="329.685" width="296" height="290" rx="2" transform="rotate(90 329.685 0)" fill="#fff"/></clipPath></defs></svg>