<svg width="234" height="330" fill="none" xmlns="http://www.w3.org/2000/svg"><path d="M62.224-62.818c-21.459 17.57-37.977 40.713-48.586 66.25C2.818 29.453-2.032 58.352.818 86.464c1.485 14.601 5.273 29.384 13.578 41.652 8.366 12.359 20.823 21.447 33.886 28.384 13.306 7.089 28.036 12.36 43.1 13.905 13.73 1.423 28.43-.606 39.826-8.876 17.64-12.814 23.914-43.773 3.91-57.465-5.547-3.787-12.154-5.665-18.762-6.483-7.153-.878-14.639-.636-21.64 1.151-13.458 3.423-23.278 13.208-29.037 25.567-12.063 25.81-8.608 57.496 2.516 82.972 11.578 26.536 32.522 47.862 57.618 62.009 24.005 13.571 51.526 20.841 79.137 20.69 26.672-.152 53.557-7.331 75.743-22.356a119.802 119.802 0 0015.155-12.208c.697-.667-.364-1.757-1.061-1.061-18.974 18.025-43.615 28.869-69.408 32.626-26.006 3.786-52.829.454-77.319-8.906-25.793-9.846-49.434-26.416-65.65-48.953-16.58-22.992-25.308-52.225-21.823-80.548 1.607-13.087 5.971-26.567 14.912-36.533 9.851-10.966 24.309-14.359 38.584-13.178 12.821 1.06 26.096 6.786 30.461 19.842 3.546 10.602.879 22.75-5.122 31.928-15.913 24.416-50.314 20.63-73.924 11.906-14.094-5.211-27.946-12.754-39.07-22.962-10.88-9.997-17.79-22.811-21.306-37.078C1.727 88.796 1.09 74.407 1.969 60.382a174.298 174.298 0 017.275-40.017c7.82-25.627 21.428-49.62 39.977-69.006a157.039 157.039 0 0114.185-13.117c.637-.606-.424-1.666-1.182-1.06z" fill="#fff"/><g clip-path="url(#clip0_4030_140)" fill="#fff"><path d="M111.577 292.198c-3.269 5.093-5.942 10.504-8.08 16.14-.3.844 1.049 1.153 1.349.309a83.573 83.573 0 017.945-15.827c.499-.738-.73-1.384-1.214-.622zm16.001 1.387a116.006 116.006 0 015.606 18.742c.204.858 1.538.453 1.358-.42-1.341-6.39-3.237-12.664-5.606-18.742-.353-.831-1.687-.426-1.358.42zM99.58 280.856c-5.955 2.269-11.887 4.522-17.842 6.791-.827.318-.452 1.661.398 1.328 5.956-2.269 11.888-4.522 17.843-6.791.841-.294.466-1.637-.398-1.328z"/></g><defs><clipPath id="clip0_4030_140"><rect x="139.172" y="309.579" width="38" height="49" rx="2" transform="rotate(148.054 139.172 309.579)" fill="#fff"/></clipPath></defs></svg>