<svg width="31" height="36" fill="none" xmlns="http://www.w3.org/2000/svg"><path d="M15.54 18l-.165 16.064m14.375-8.668V10.604a1.25 1.25 0 00-.635-1.088L15.99 2.098a1.25 1.25 0 00-1.23 0L1.635 9.516A1.25 1.25 0 001 10.604v14.792a1.25 1.25 0 00.635 1.088l13.125 7.418a1.25 1.25 0 001.23 0l13.125-7.418a1.25 1.25 0 00.635-1.088v0z" stroke="#961914" stroke-width="2" stroke-linecap="round" stroke-linejoin="round"/><path d="M29.579 9.973L15.54 18 1.172 9.97" stroke="#961914" stroke-width="2" stroke-linecap="round" stroke-linejoin="round"/><path d="M23.052 21.205v-7.5l-14.496-8.1" stroke="#961914" stroke-width="2" stroke-linecap="round" stroke-linejoin="round"/></svg>