<svg width="139" height="233" fill="none" xmlns="http://www.w3.org/2000/svg"><g clip-path="url(#clip0_191_1282)"><path d="M85.637 230.372c14.129-10.213 25.371-24.113 32.997-39.739 7.777-15.923 11.919-33.88 11.203-51.635-.376-9.223-2.189-18.646-6.931-26.664-4.777-8.077-12.244-14.255-20.174-19.107-8.075-4.956-17.114-8.825-26.504-10.368-8.557-1.416-17.855-.701-25.317 4.057-11.553 7.373-16.667 26.568-4.64 35.924 3.334 2.588 7.407 4.019 11.52 4.783 4.453.824 9.158.957 13.618.101 8.57-1.637 15.103-7.405 19.185-14.945 8.55-15.742 7.588-35.765 1.581-52.18C85.924 43.5 73.6 29.317 58.397 19.48 43.857 10.05 26.872 4.438 9.547 3.483c-16.735-.92-33.87 2.564-48.358 11.152a75.304 75.304 0 00-9.97 7.087c-.463.392.16 1.117.624.706C-35.57 11.835-19.7 5.965-3.38 4.588c16.455-1.387 33.153 1.725 48.158 8.532 15.803 7.162 30 18.463 39.313 33.228C93.614 61.41 97.977 80.094 94.71 97.74c-1.505 8.154-4.756 16.45-10.743 22.366-6.596 6.509-15.794 8.089-24.703 6.804-8-1.153-16.11-5.252-18.35-13.614-1.82-6.79.315-14.314 4.428-19.848 10.91-14.721 32.344-11.036 46.82-4.661 8.642 3.807 17.043 9.069 23.631 15.9 6.445 6.69 10.291 14.996 11.953 24.086 1.608 8.725 1.46 17.782.374 26.553a109.717 109.717 0 01-6.086 24.843c-5.88 15.79-15.33 30.333-27.702 41.797a98.743 98.743 0 01-9.397 7.695c-.422.356.203 1.062.701.71z" fill="#EAD1D0"/></g><defs><clipPath id="clip0_191_1282"><rect x="124.659" y="232.853" width="186" height="222" rx="2" transform="rotate(-176.529 124.659 232.853)" fill="#fff"/></clipPath></defs></svg>