<svg width="188" height="442" viewBox="0 0 188 442" fill="none" xmlns="http://www.w3.org/2000/svg">
<g clip-path="url(#clip0_191_1266)">
<path d="M111.559 300.247C105.877 302.331 100.476 305.028 95.3683 308.227C94.6193 308.719 95.508 309.779 96.2569 309.288C101.248 306.134 106.585 303.515 112.15 301.477C112.993 301.19 112.404 299.933 111.559 300.247Z" fill="#EAD1D0"/>
<path d="M123.471 311.021C121.714 317.297 119.406 323.44 116.614 329.342C116.258 330.149 117.566 330.633 117.949 329.828C120.742 323.926 123.022 317.781 124.806 311.507C125.027 310.631 123.72 310.148 123.471 311.021Z" fill="#EAD1D0"/>
<path d="M108.852 283.962C102.735 282.172 96.6472 280.383 90.531 278.592C89.6804 278.347 89.1676 279.643 90.0461 279.892C96.1623 281.682 102.251 283.471 108.367 285.261C109.215 285.535 109.728 284.238 108.852 283.962Z" fill="#EAD1D0"/>
</g>
<g clip-path="url(#clip1_191_1266)">
<path d="M286.73 -12.4605C259.016 -11.4256 231.87 -2.96435 207.988 10.9748C183.644 25.172 162.319 45.2699 147.604 69.3916C139.966 81.9236 134.053 95.9922 133.258 110.786C132.456 125.689 136.892 140.457 143.11 153.877C149.43 167.565 157.983 180.665 169.052 190.997C179.133 200.427 192.073 207.692 206.15 207.987C227.948 208.435 251.653 187.556 243.986 164.559C241.854 158.191 237.724 152.702 232.953 148.058C227.784 143.036 221.672 138.706 215.013 135.9C202.222 130.497 188.485 132.36 176.428 138.729C151.222 152.007 134.831 179.343 128.302 206.364C121.495 234.505 125.299 264.152 136.749 290.588C147.677 315.905 165.214 338.326 187.308 354.888C208.653 370.883 234.413 381.405 261.17 382.838C267.641 383.182 274.188 382.976 280.622 382.266C281.58 382.156 281.393 380.647 280.417 380.781C254.408 383.679 228.22 377.432 205.398 364.841C182.388 352.147 163.027 333.285 149.168 311.029C134.564 287.6 125.737 260.113 126.433 232.357C127.114 204.019 137.82 175.451 157.711 154.988C166.897 145.531 178.52 137.426 191.666 134.887C206.141 132.1 219.711 138.132 230.373 147.699C239.948 156.29 247.067 168.873 242.657 181.913C239.077 192.504 229.612 200.572 219.284 204.26C191.853 214.102 166.729 190.299 153.186 169.082C145.103 156.415 138.623 142.036 135.928 127.18C133.297 112.64 135.533 98.2546 141.352 84.7612C146.919 71.7997 155.106 59.9494 164.28 49.3044C173.156 39.0032 183.239 29.7692 194.255 21.8128C215.97 6.11645 241.309 -4.77871 267.804 -9.01988C274.173 -10.0452 280.576 -10.6644 287.032 -10.9014C287.905 -10.9996 287.7 -12.4854 286.73 -12.4605Z" fill="#EAD1D0"/>
</g>
<defs>
<clipPath id="clip0_191_1266">
<rect x="123.045" y="330.77" width="38" height="49" rx="2" transform="rotate(-174.775 123.045 330.77)" fill="white"/>
</clipPath>
<clipPath id="clip1_191_1266">
<rect x="199.193" width="296" height="290" rx="2" transform="rotate(37.1708 199.193 0)" fill="white"/>
</clipPath>
</defs>
</svg>
