<svg width="188" height="442" fill="none" xmlns="http://www.w3.org/2000/svg"><g clip-path="url(#clip0_191_1266)" fill="#EAD1D0"><path d="M111.559 300.247c-5.682 2.084-11.083 4.781-16.19 7.98-.75.492.139 1.552.888 1.061a83.549 83.549 0 0115.893-7.811c.843-.287.254-1.544-.591-1.23zm11.912 10.774a116.124 116.124 0 01-6.857 18.321c-.356.807.952 1.291 1.335.486 2.793-5.902 5.073-12.047 6.857-18.321.221-.876-1.086-1.359-1.335-.486zm-14.619-27.059c-6.117-1.79-12.205-3.579-18.321-5.37-.85-.245-1.363 1.051-.485 1.3 6.116 1.79 12.205 3.579 18.321 5.369.848.274 1.361-1.023.485-1.299z"/></g><g clip-path="url(#clip1_191_1266)"><path d="M286.73-12.46c-27.714 1.034-54.86 9.496-78.742 23.435-24.344 14.197-45.669 34.295-60.384 58.417-7.638 12.532-13.551 26.6-14.346 41.394-.802 14.903 3.634 29.671 9.852 43.091 6.32 13.688 14.873 26.788 25.942 37.12 10.081 9.43 23.021 16.695 37.098 16.99 21.798.448 45.503-20.431 37.836-43.428-2.132-6.368-6.262-11.857-11.033-16.501-5.169-5.022-11.281-9.352-17.94-12.158-12.791-5.403-26.528-3.54-38.585 2.829-25.206 13.278-41.597 40.614-48.126 67.635-6.807 28.141-3.003 57.788 8.447 84.224 10.928 25.317 28.465 47.738 50.559 64.3 21.345 15.995 47.105 26.517 73.862 27.95 6.471.344 13.018.138 19.452-.572.958-.11.771-1.619-.205-1.485-26.009 2.898-52.197-3.349-75.019-15.94-23.01-12.694-42.371-31.556-56.23-53.812-14.604-23.429-23.431-50.916-22.735-78.672.681-28.338 11.387-56.906 31.278-77.369 9.186-9.457 20.809-17.562 33.955-20.101 14.475-2.787 28.045 3.245 38.707 12.812 9.575 8.591 16.694 21.174 12.284 34.214-3.58 10.591-13.045 18.659-23.373 22.347-27.431 9.842-52.555-13.961-66.098-35.178-8.083-12.667-14.563-27.046-17.258-41.902-2.631-14.54-.395-28.925 5.424-42.419 5.567-12.961 13.754-24.812 22.928-35.457a174.3 174.3 0 0129.975-27.491C215.97 6.116 241.309-4.78 267.804-9.02a157.036 157.036 0 0119.228-1.881c.873-.099.668-1.584-.302-1.56z" fill="#EAD1D0"/></g><defs><clipPath id="clip0_191_1266"><rect x="123.045" y="330.77" width="38" height="49" rx="2" transform="rotate(-174.775 123.045 330.77)" fill="#fff"/></clipPath><clipPath id="clip1_191_1266"><rect x="199.193" width="296" height="290" rx="2" transform="rotate(37.17 199.193 0)" fill="#fff"/></clipPath></defs></svg>