<svg width="130" height="228" viewBox="0 0 130 228" fill="none" xmlns="http://www.w3.org/2000/svg">
<path d="M85.6372 227.372C99.7658 217.159 111.008 203.259 118.634 187.633C126.411 171.71 130.553 153.753 129.837 135.998C129.461 126.775 127.648 117.352 122.906 109.334C118.129 101.257 110.662 95.0787 102.732 90.2271C94.6566 85.2712 85.618 81.4021 76.2285 79.8592C67.6709 78.4431 58.3734 79.158 50.9105 83.9158C39.3584 91.2885 34.2444 110.484 46.2702 119.84C49.605 122.428 53.6778 123.859 57.791 124.623C62.2441 125.447 66.949 125.58 71.4085 124.724C79.9796 123.087 86.5116 117.319 90.5942 109.779C99.1432 94.0366 98.1823 74.0144 92.1754 57.5989C85.9236 40.5004 73.5991 26.3165 58.3969 16.4813C43.8571 7.04897 26.8721 1.4382 9.54757 0.482864C-7.18764 -0.436726 -24.3235 3.04731 -38.8114 11.6352C-42.3147 13.713 -45.6654 16.1055 -48.7816 18.7221C-49.2442 19.1139 -48.6203 19.8389 -48.1566 19.428C-35.5696 8.83533 -19.701 2.96504 -3.37984 1.58829C13.0755 0.200603 29.7732 3.3128 44.7775 10.1204C60.5808 17.2818 74.7782 28.5829 84.0909 43.3476C93.6144 58.4114 97.9765 77.0939 94.7119 94.7412C93.2061 102.895 89.9553 111.191 83.9677 117.107C77.3717 123.616 68.1744 125.196 59.2653 123.911C51.2641 122.758 43.1554 118.659 40.9149 110.297C39.0944 103.507 41.2298 95.9826 45.3434 90.4491C56.2536 75.7276 77.6866 79.4132 92.1638 85.788C100.805 89.5949 109.206 94.8568 115.794 101.688C122.239 108.378 126.085 116.684 127.747 125.774C129.355 134.499 129.207 143.556 128.121 152.327C127.072 160.813 125.02 169.163 122.035 177.17C116.155 192.96 106.705 207.503 94.3326 218.967C91.3604 221.726 88.2286 224.285 84.9362 226.662C84.5139 227.018 85.1389 227.724 85.6372 227.372Z" fill="#EAD1D0"/>
</svg>
