<svg width="676" height="905" viewBox="0 0 676 905" fill="none" xmlns="http://www.w3.org/2000/svg">
<path d="M-143.663 1010.64C-146.116 998.274 -142.799 962.631 -109.9 919.018C-68.7769 864.502 -17.3289 875.075 32.755 865.519C82.8388 855.962 245.795 839.369 312.072 751.507C378.348 663.646 325.753 560.858 376.536 484.562C427.318 408.266 535.637 400.285 588.738 329.89C641.839 259.495 537.856 82.2344 615.312 -20.447C677.276 -102.592 734.681 -117.533 755.638 -114.735" stroke="#EAD1D0" stroke-width="4" stroke-linecap="round" stroke-dasharray="8 8"/>
<path d="M-26.0643 1103.24C-31.0037 1091.63 -35.0702 1056.07 -11.8204 1006.63C17.2419 944.838 69.7647 944.63 116.822 925.001C163.88 905.371 319.964 855.695 366.802 756.104C413.641 656.513 341.075 566.703 375.122 481.611C409.169 396.518 513.546 366.482 551.073 286.689C588.6 206.896 450.459 54.7431 505.197 -61.6462C548.988 -154.758 602.106 -181.159 623.191 -182.721" stroke="#EAD1D0" stroke-width="4" stroke-linecap="round" stroke-dasharray="8 8"/>
</svg>
