<svg width="676" height="905" fill="none" xmlns="http://www.w3.org/2000/svg"><path d="M-143.663 1010.64c-2.453-12.366.864-48.009 33.763-91.622 41.123-54.516 92.571-43.943 142.655-53.499 50.084-9.557 213.04-26.15 279.317-114.012 66.276-87.861 13.681-190.649 64.464-266.945 50.782-76.296 159.101-84.277 212.202-154.672S537.856 82.234 615.312-20.447c61.964-82.145 119.369-97.086 140.326-94.288" stroke="#EAD1D0" stroke-width="4" stroke-linecap="round" stroke-dasharray="8 8"/><path d="M-26.064 1103.24c-4.94-11.61-9.006-47.17 14.244-96.61 29.062-61.792 81.585-62 128.642-81.629 47.058-19.63 203.142-69.306 249.98-168.897 46.839-99.591-25.727-189.401 8.32-274.493 34.047-85.093 138.424-115.129 175.951-194.922C588.6 206.896 450.459 54.743 505.197-61.646c43.791-93.112 96.909-119.513 117.994-121.075" stroke="#EAD1D0" stroke-width="4" stroke-linecap="round" stroke-dasharray="8 8"/></svg>