<svg width="24" height="24" fill="none" xmlns="http://www.w3.org/2000/svg"><path d="M4.259 16.594a8.996 8.996 0 113.147 3.147h0l-3.108.888a.75.75 0 01-.927-.927l.888-3.109h0z" stroke="#fff" stroke-linecap="round" stroke-linejoin="round"/><path d="M13.938 16.5h-.003A6.425 6.425 0 017.5 10.065v-.001A2.572 2.572 0 0110.074 7.5m3.864 9L10.95 8.01a1.01 1.01 0 00-.877-.51s0 0 0 0m3.864 9a2.58 2.58 0 002.562-2.573v-.001M13.938 16.5l2.562-2.574M10.074 7.5s0 0 0 0V8v-.5zm6.426 6.426a1.01 1.01 0 00-.51-.877l-1.515-.867a1.093 1.093 0 00-1.104.012l-.924.555a3.07 3.07 0 01-1.196-1.196l.555-.924a1.092 1.092 0 00.011-1.104l-.866-1.516 5.549 5.917zm-.569-.256a.51.51 0 01.069.256l-.257-.443a.504.504 0 01.188.187z" stroke="#fff" stroke-linecap="round" stroke-linejoin="round"/></svg>