<svg width="147" height="548" fill="none" xmlns="http://www.w3.org/2000/svg"><path opacity=".6" fill-rule="evenodd" clip-rule="evenodd" d="M165.609 548h-22.685L28.299 508.823v37.378H2.192V471.25h21.29l116.02 39.776v-40.175h26.107V548zm-25.111-35.577L23.317 472.25H3.189v72.952h24.113v-37.775l115.787 39.574h21.523V471.85h-24.114v40.573zM36.258 394.922l-.009.002c-2.768.504-4.976 1.565-6.674 3.146-1.578 1.47-2.472 3.879-2.472 7.463 0 3.29.88 5.58 2.472 7.062 1.698 1.582 3.906 2.642 6.674 3.147l.009.002c2.721.52 5.648.781 8.781.781h77.723c3.004 0 5.941-.196 8.811-.587 2.767-.508 4.973-1.506 6.667-2.956 1.569-1.471 2.458-3.877 2.458-7.449 0-3.584-.894-5.993-2.472-7.463-1.698-1.581-3.906-2.642-6.675-3.146a48.889 48.889 0 00-8.789-.784H45.039c-3.133 0-6.06.262-8.781.782zm102.646 18.805c-1.86 1.599-4.252 2.665-7.174 3.198-2.923.4-5.913.6-8.968.6H45.039c-3.189 0-6.178-.267-8.968-.8-2.923-.533-5.314-1.665-7.174-3.397-1.86-1.733-2.79-4.331-2.79-7.795 0-3.731.93-6.463 2.79-8.195 1.86-1.732 4.251-2.865 7.174-3.398 2.79-.533 5.78-.799 8.968-.799h77.723c3.055 0 6.045.266 8.968.799 2.922.533 5.314 1.666 7.174 3.398 1.86 1.732 2.79 4.464 2.79 8.195s-.93 6.462-2.79 8.194zM168 405.533c0 12.227-2.141 22.023-6.521 29.297-4.37 7.26-10.66 12.466-18.831 15.607-8.113 3.119-17.739 4.663-28.854 4.663H53.808c-11.246 0-20.875-1.543-28.86-4.665-8.039-3.143-14.195-8.351-18.43-15.611C2.14 427.55 0 417.757 0 405.533c0-12.353 2.139-22.213 6.515-29.488 4.234-7.392 10.39-12.67 18.433-15.814 7.985-3.122 17.614-4.665 28.86-4.665h59.986c11.115 0 20.741 1.544 28.854 4.663 8.175 3.142 14.465 8.418 18.834 15.81 4.378 7.275 6.518 17.138 6.518 29.494zm-7.374-28.981c-4.251-7.196-10.363-12.325-18.334-15.39-7.972-3.065-17.471-4.597-28.498-4.597H53.808c-11.16 0-20.66 1.532-28.498 4.597-7.84 3.065-13.818 8.194-17.936 15.39-4.252 7.062-6.378 16.722-6.378 28.981 0 12.125 2.126 21.719 6.378 28.781 4.118 7.062 10.097 12.125 17.936 15.19 7.838 3.064 17.338 4.597 28.498 4.597h59.986c11.027 0 20.526-1.533 28.498-4.597 7.971-3.065 14.083-8.128 18.334-15.19 4.252-7.062 6.378-16.656 6.378-28.781 0-12.259-2.126-21.919-6.378-28.981zM36.258 273.814l-.009.002c-2.768.504-4.976 1.565-6.674 3.146-1.578 1.47-2.472 3.879-2.472 7.463 0 3.29.88 5.58 2.472 7.062 1.698 1.582 3.906 2.642 6.674 3.147l.009.002c2.721.52 5.648.782 8.781.782h77.723c3.004 0 5.941-.196 8.811-.588 2.767-.508 4.973-1.506 6.667-2.956 1.569-1.471 2.457-3.876 2.457-7.449 0-3.584-.893-5.993-2.471-7.463-1.698-1.581-3.906-2.642-6.675-3.146a48.889 48.889 0 00-8.789-.784H45.039c-3.133 0-6.06.262-8.781.782zm95.472 22.003c-2.923.4-5.913.6-8.968.6H45.039c-3.189 0-6.178-.267-8.968-.8-2.923-.533-5.314-1.665-7.174-3.397-1.86-1.733-2.79-4.331-2.79-7.795 0-3.731.93-6.463 2.79-8.195 1.86-1.732 4.251-2.865 7.174-3.398 2.79-.533 5.78-.799 8.968-.799h77.723c3.055 0 6.045.266 8.968.799 2.922.533 5.314 1.666 7.174 3.398 1.86 1.732 2.79 4.464 2.79 8.195s-.93 6.462-2.79 8.194c-1.86 1.599-4.252 2.665-7.174 3.198zM168 284.425c0 12.227-2.141 22.023-6.521 29.297-4.37 7.26-10.66 12.466-18.831 15.607-8.113 3.119-17.739 4.663-28.854 4.663H53.808c-11.246 0-20.875-1.543-28.86-4.665-8.039-3.143-14.195-8.351-18.43-15.61C2.14 306.443 0 296.649 0 284.425c0-12.353 2.139-22.213 6.515-29.489 4.234-7.391 10.39-12.669 18.433-15.813 7.985-3.122 17.614-4.665 28.86-4.665h59.986c11.115 0 20.741 1.544 28.854 4.663 8.175 3.142 14.464 8.417 18.833 15.809 4.379 7.276 6.519 17.138 6.519 29.495zm-7.374-28.981c-4.251-7.195-10.363-12.325-18.334-15.39-7.972-3.065-17.471-4.597-28.498-4.597H53.808c-11.16 0-20.66 1.532-28.498 4.597-7.84 3.065-13.818 8.195-17.936 15.39-4.252 7.062-6.378 16.722-6.378 28.981 0 12.125 2.126 21.719 6.378 28.781 4.118 7.062 10.097 12.125 17.936 15.19 7.838 3.065 17.338 4.597 28.498 4.597h59.986c11.027 0 20.526-1.532 28.498-4.597 7.971-3.065 14.083-8.128 18.334-15.19 4.252-7.062 6.378-16.656 6.378-28.781 0-12.259-2.126-21.919-6.378-28.981zM36.258 152.706l-.009.002c-2.768.505-4.976 1.565-6.674 3.147-1.578 1.469-2.472 3.878-2.472 7.462 0 3.29.88 5.58 2.472 7.062 1.698 1.582 3.906 2.643 6.674 3.147l.009.002c2.721.52 5.648.782 8.781.782h77.723c3.004 0 5.941-.196 8.811-.588 2.767-.507 4.973-1.506 6.667-2.956 1.569-1.471 2.457-3.876 2.457-7.449 0-3.584-.893-5.993-2.471-7.462-1.698-1.582-3.906-2.642-6.675-3.147a48.889 48.889 0 00-8.789-.784H45.039c-3.133 0-6.06.262-8.781.782zm95.472 22.003c-2.923.4-5.913.6-8.968.6H45.039c-3.189 0-6.178-.266-8.968-.799-2.923-.533-5.314-1.666-7.174-3.398-1.86-1.732-2.79-4.331-2.79-7.795 0-3.731.93-6.463 2.79-8.195 1.86-1.732 4.251-2.864 7.174-3.397 2.79-.533 5.78-.8 8.968-.8h77.723c3.055 0 6.045.267 8.968.8 2.922.533 5.314 1.665 7.174 3.397 1.86 1.732 2.79 4.464 2.79 8.195s-.93 6.462-2.79 8.194c-1.86 1.599-4.252 2.665-7.174 3.198zM168 163.317c0 12.227-2.141 22.023-6.521 29.298-4.37 7.26-10.66 12.465-18.831 15.606-8.113 3.119-17.739 4.663-28.854 4.663H53.808c-11.246 0-20.875-1.543-28.86-4.665-8.039-3.143-14.195-8.35-18.43-15.61C2.14 185.335 0 175.541 0 163.317c0-12.353 2.139-22.213 6.515-29.488 4.234-7.392 10.39-12.669 18.433-15.814 7.985-3.122 17.614-4.665 28.86-4.665h59.986c11.115 0 20.741 1.544 28.854 4.663 8.175 3.143 14.464 8.417 18.833 15.809 4.379 7.276 6.519 17.138 6.519 29.495zm-7.374-28.981c-4.251-7.195-10.363-12.325-18.334-15.39-7.972-3.065-17.471-4.597-28.498-4.597H53.808c-11.16 0-20.66 1.532-28.498 4.597-7.84 3.065-13.818 8.195-17.936 15.39-4.252 7.062-6.378 16.722-6.378 28.981 0 12.125 2.126 21.719 6.378 28.781 4.118 7.062 10.097 12.125 17.936 15.19 7.838 3.065 17.338 4.597 28.498 4.597h59.986c11.027 0 20.526-1.532 28.498-4.597 7.971-3.065 14.083-8.128 18.334-15.19 4.252-7.062 6.378-16.656 6.378-28.781 0-12.259-2.126-21.919-6.378-28.981zm4.983-64.947L2.192 98.931V66.3l104.005-16.5L2.192 34.442V0L165.61 29.946v39.443zm-52.812-19.622L3.189 67.155v30.58l161.423-29.18V30.778L3.189 1.199v32.378l109.608 16.19z" fill="#fff"/></svg>